# xmcd
#
# Track frame offsets: 
#        150
#        13725
#        48755
#        59392
#        70767
#        89365
#        103202
#        128487
#        155132
#        170982
#        188992
#        208157
#        233625
#        252097
#        272185
#
# Disc length: 3882 seconds
#
# Revision: 0
# Processed by: cddbd v1.5.1PL2 Copyright (c) Steve Scherf et al.
# Submitted via: ExactAudioCopy v0.95b3
#
DISCID=d80f280f
DTITLE=We Love the Blues - Eddie Cleanhead Vinson Jimmy Witherspoon An
DTITLE=d Others
DYEAR=2000
DGENRE=Blues
TTITLE0=They Call Me Mr Cleanhead-eddie Cleanhead Vinson
TTITLE1=Alimony Blues-eddie Cleanhead Vinson
TTITLE2=Low Down Dirty Shame-jimmy Witherspoon
TTITLE3=Ain't Nobody's Business-jimmy Witherspoon
TTITLE4=Roll Em Pete-jimmy Witherspoon
TTITLE5=Down Home Blues- Jimmy Witherspoon
TTITLE6=Goin to Chicago Blues-t Bone Walker
TTITLE7=Stormy Monday Blues-t-bone Walker
TTITLE8=Hey Baby Come On Home to Me-t- Bone Walker
TTITLE9=Everyday-t Bone Walker
TTITLE10=Sent For You Yesterday-jimmy Rushing
TTITLE11=I Want a Little Girl-jimmy Rushing
TTITLE12=Can't Believe You're in Love With Me-jimmy Rushing
TTITLE13=Cc Rider and Harvard Blues-jimmy Rushing
TTITLE14=In Conclusion Blues-alan Grant and Lew Tabackin
EXTD=
EXTT0=
EXTT1=
EXTT2=
EXTT3=
EXTT4=
EXTT5=
EXTT6=
EXTT7=
EXTT8=
EXTT9=
EXTT10=
EXTT11=
EXTT12=
EXTT13=
EXTT14=
PLAYORDER=
